<svg width="24" height="24" viewBox="0 0 24 24" fill="none" xmlns="http://www.w3.org/2000/svg">
<path d="M10.98 1.99976C10.5327 1.99976 10.1157 2.20984 9.87142 2.5582L8.6087 4.35873L6.55245 5.49234L4.24432 5.60903C3.79772 5.63162 3.39361 5.86239 3.16998 6.22261L2.17742 7.82132C1.95378 8.18155 1.94091 8.6224 2.14318 8.99335L3.1886 10.9106V13.0889L2.14318 15.0062C1.94091 15.3771 1.95378 15.818 2.17742 16.1782L3.16998 17.7769C3.39361 18.1371 3.79772 18.3679 4.24432 18.3905L6.55245 18.5072L8.66382 19.6408L9.92654 21.4413C10.1709 21.7897 10.5878 21.9998 11.0351 21.9998H13.0202C13.4675 21.9998 13.8845 21.7897 14.1288 21.4413L15.3915 19.6408L17.4478 18.5072L19.7559 18.3905C20.2025 18.3679 20.6066 18.1372 20.8302 17.7769L21.8228 16.1782C22.0464 15.818 22.0593 15.3772 21.857 15.0062L20.8116 13.089V10.9106L21.857 8.99335C22.0593 8.6224 22.0464 8.18155 21.8228 7.82132L20.8302 6.22261C20.6066 5.86239 20.2025 5.63162 19.7559 5.60903L17.4478 5.49234L15.3364 4.35873L14.0737 2.5582C13.8294 2.20984 13.4124 1.99976 12.9651 1.99976H10.98Z" stroke="white" stroke-width="2"/>
<path d="M9.536 11.9998C9.536 11.1194 10.0057 10.306 10.768 9.86578C11.5304 9.42561 12.4698 9.42561 13.2322 9.86578C13.9945 10.306 14.4642 11.1194 14.4642 11.9998C14.4642 12.8801 13.9945 13.6936 13.2322 14.1337C12.4698 14.5739 11.5304 14.5739 10.768 14.1337C10.0057 13.6936 9.536 12.8801 9.536 11.9998Z" stroke="white" stroke-width="2"/>
</svg>
